<svg width="40" height="40" viewBox="0 0 40 40" fill="none" xmlns="http://www.w3.org/2000/svg">
<path id="Vector" d="M8.45334 1.99688e-05C7.34256 -0.00239694 6.24224 0.214605 5.21554 0.638568C4.18884 1.06253 3.256 1.68511 2.47055 2.47055C1.68511 3.256 1.06253 4.18884 0.638568 5.21554C0.214605 6.24224 -0.00239694 7.34256 1.99688e-05 8.45334V31.5467C-0.00239694 32.6574 0.214605 33.7578 0.638568 34.7845C1.06253 35.8112 1.68511 36.744 2.47055 37.5294C3.256 38.3149 4.18884 38.9375 5.21554 39.3614C6.24224 39.7854 7.34256 40.0024 8.45334 40H31.5467C32.6574 40.0024 33.7578 39.7854 34.7845 39.3614C35.8112 38.9375 36.744 38.3149 37.5294 37.5294C38.3149 36.744 38.9375 35.8112 39.3614 34.7845C39.7854 33.7578 40.0024 32.6574 40 31.5467V8.45334C40.0024 7.34256 39.7854 6.24224 39.3614 5.21554C38.9375 4.18884 38.3149 3.256 37.5294 2.47055C36.744 1.68511 35.8112 1.06253 34.7845 0.638568C33.7578 0.214605 32.6574 -0.00239694 31.5467 1.99688e-05H8.45334ZM26.25 10C28.0817 10 29.5833 11.5017 29.5833 13.3333C29.5833 15.165 28.0817 16.6667 26.25 16.6667C25.315 16.6667 24.4667 16.2717 23.86 15.645L18.5283 18.7233C18.6617 19.1283 18.75 19.5533 18.75 20C18.75 20.4467 18.66 20.8717 18.5283 21.2767L23.8633 24.355C24.172 24.033 24.5425 23.7765 24.9525 23.6009C25.3626 23.4254 25.8039 23.3344 26.25 23.3333C28.0817 23.3333 29.5833 24.835 29.5833 26.6667C29.5833 28.4983 28.0817 30 26.25 30C24.4183 30 22.9167 28.4983 22.9167 26.6667C22.9167 26.3667 22.9717 26.0817 23.0467 25.8033L17.7083 22.725C17.3211 23.1751 16.8417 23.5368 16.3025 23.7855C15.7634 24.0342 15.1771 24.1642 14.5833 24.1667C13.4794 24.1631 12.4216 23.723 11.6409 22.9424C10.8603 22.1618 10.4202 21.104 10.4167 20C10.4167 17.7083 12.2917 15.8333 14.5833 15.8333C15.83 15.8333 16.94 16.4 17.705 17.275L23.0433 14.1917C22.9633 13.9124 22.9207 13.6238 22.9167 13.3333C22.9167 11.5017 24.4183 10 26.25 10Z" fill="#F86565"/>
</svg>
