<svg xmlns="http://www.w3.org/2000/svg" viewBox="0 0 1440 320"><path fill="#ef9191" fill-opacity="1" d="M0,256L34.3,256C68.6,256,137,256,206,256C274.3,256,343,256,411,234.7C480,213,549,171,617,170.7C685.7,171,754,213,823,213.3C891.4,213,960,171,1029,176C1097.1,181,1166,235,1234,245.3C1302.9,256,1371,224,1406,208L1440,192L1440,0L1405.7,0C1371.4,0,1303,0,1234,0C1165.7,0,1097,0,1029,0C960,0,891,0,823,0C754.3,0,686,0,617,0C548.6,0,480,0,411,0C342.9,0,274,0,206,0C137.1,0,69,0,34,0L0,0Z"></path></svg>